<svg id="Layer_1" data-name="Layer 1" xmlns="http://www.w3.org/2000/svg" width="1000" height="1000" viewBox="0 0 1000 1000">
  <defs>
    <style>
      .cls-1 {
        fill: #fff;
      }
    </style>
  </defs>
  <g>
    <rect x="0.5" y="0.5" width="999" height="999"/>
    <path d="M999,1V999H1V1H999m1-1H0V1000H1000V0Z"/>
  </g>
  <g>
    <path class="cls-1" d="M396.91,570.78h84.6v60.6H243.31v-60.6h84.6V385.38h-84.6v-60.6h153.6Zm-34.8-288.6a39.25,39.25,0,0,1-28.8-12q-12-12-12-29.4t12-29.1a39.75,39.75,0,0,1,28.8-11.7q17.38,0,29.4,11.7t12,29.1a41,41,0,0,1-41.4,41.4Z"/>
    <path class="cls-1" d="M557.11,747.78,603.9,626,489.3,324.78h70.2L629.71,512a229.42,229.42,0,0,1,9,28.8q1.18-4.2,3-9.3c1.19-3.4,2.4-7,3.59-10.8s2.2-6.7,3-8.7l70.2-187.2h70.8l-160.8,423Z"/>
  </g>
</svg>
